<svg xmlns="http://www.w3.org/2000/svg" width="630" height="815" viewBox="0 0 630 815"><defs><radialGradient id="g" cx="55%" cy="45%" r="70%"><stop offset="0" stop-color="#17314c"/><stop offset="0.48" stop-color="#07101a"/><stop offset="1" stop-color="#03050a"/></radialGradient><linearGradient id="gold" x1="0" y1="0" x2="1" y2="1"><stop stop-color="#fff1b8"/><stop offset="0.45" stop-color="#d49b35"/><stop offset="1" stop-color="#7b5420"/></linearGradient></defs><rect width="630" height="815" fill="url(#g)"/><rect x="30" y="28" width="570" height="759" rx="10" fill="none" stroke="#b98d39" stroke-width="4"/><rect x="52" y="52" width="526" height="715" rx="8" fill="none" stroke="#6f5520" stroke-width="1.5"/><text x="315" y="135" text-anchor="middle" font-family="Cinzel, Georgia, serif" font-size="84" font-weight="700" fill="url(#gold)">TPN(n)</text><text x="315" y="185" text-anchor="middle" font-family="Cinzel, Georgia, serif" font-size="30" fill="#f5d48a">TWIST POLIGONAL NAVIGABIL</text><g transform="translate(78 280)"><path d="M10 130 C90 30 190 20 285 72 C345 105 390 105 455 35" fill="none" stroke="#4bb7e8" stroke-width="18" opacity=".45"/><path d="M10 130 C90 30 190 20 285 72 C345 105 390 105 455 35" fill="none" stroke="#d49b35" stroke-width="3"/><g fill="none" stroke="#d49b35" stroke-width="2"><polygon points="70,100 105,80 140,100 140,140 105,160 70,140"/><polygon points="170,65 205,45 240,65 240,105 205,125 170,105"/><polygon points="300,92 335,72 370,92 370,132 335,152 300,132"/></g></g><text x="315" y="610" text-anchor="middle" font-family="Georgia, serif" font-size="25" fill="#e9dcb9">Geometrie, canale, fazare magnetică</text><text x="315" y="645" text-anchor="middle" font-family="Georgia, serif" font-size="25" fill="#e9dcb9">validare Hall si prototipare liniară</text><text x="315" y="722" text-anchor="middle" font-family="Georgia, serif" font-size="27" fill="#f5d48a">Teodor Cârciumaru / Theo Virth</text><text x="315" y="760" text-anchor="middle" font-family="Georgia, serif" font-size="21" fill="#c4b68f">Iunie 2026 • bug-bang-theory.org</text></svg>